<?xml version="1.0" encoding="UTF-8"?>
<svg xmlns="http://www.w3.org/2000/svg" version="1.1" viewBox="0 0 430.866 102.614">
  <defs>
    <style>
      .cls-1 {
        fill: none;
      }

      .cls-1, .cls-2 {
        stroke-width: 0px;
      }

      .cls-2 {
        fill: #005aff;
      }
    </style>
  </defs>
  <g id="clear_area" data-name="clear area">
    <rect class="cls-1" x="0" width="430.866" height="102.614"/>
  </g>
  <g id="grafik">
    <path class="cls-2" d="M21.362,66.883h35.922c5.255-1.048,4.67-7.673,0-8.591h-18.44c-9.816,0-17.584-8.38-17.584-18.361,0-9.601,7.179-18.587,17.584-18.587h20.235c8.342,0,14.3,6.246,14.3,14.167h-34.534c-4.644.664-4.938,7.781-.001,8.59h18.39c10.092.27,18.137,8.302,18.137,18.471,0,9.37-7.951,18.783-18.088,18.783h-18.964c-8.069,0-16.959-4.356-16.959-14.472h0ZM80.695,21.341h0v60.013h14.173V21.341h-14.173ZM159.327,66.181h0l-12.674-6.882c-2.785,5.414-8.402,9.042-14.707,9.042-9.009,0-16.548-7.411-16.548-16.845s7.538-16.844,16.548-16.844c6.178,0,11.665,3.487,14.503,8.719l12.69-6.848c-5.255-9.709-15.462-16.292-27.193-16.292-17.104,0-30.968,13.997-30.968,31.265s13.864,31.267,30.968,31.267c11.846,0,22.172-6.714,27.381-16.582h0ZM164.669,21.341v60.013h14.334v-23.252h5.038l15.084,23.252h17.629l-20.01-29.628,20.305-30.385h-17.624l-14.9,24.069h-5.521v-24.069h-14.334ZM230.913,25.156c0-2.839,2.963-4.165,5.492-4.165,2.756,0,5.14,1.264,5.72,4.29h-2.279c-.477-1.782-2.114-2.321-3.544-2.321-1.098,0-2.984.518-2.984,2.093,0,1.243.995,1.886,2.28,2.155l1.782.373c2.404.497,5.036,1.409,5.036,4.435,0,2.984-2.859,4.538-5.782,4.538-3.482,0-5.824-1.927-6.176-5.077h2.321c.435,2.052,1.824,3.109,3.938,3.109,1.948,0,3.316-.932,3.316-2.383,0-1.554-1.492-2.176-3.108-2.508l-1.845-.373c-2.134-.435-4.165-1.637-4.165-4.165ZM254.496,33.01c-.518,1.844-2.176,3.544-5.015,3.544-3.606,0-5.554-2.632-5.554-5.865,0-3.461,2.321-5.761,5.492-5.761,3.44,0,5.451,2.818,5.222,6.445h-8.496c.207,2.052,1.513,3.337,3.253,3.337,1.554,0,2.466-.643,2.922-1.699h2.176ZM252.403,29.674c-.062-1.658-1.223-2.984-3.005-2.984-1.679,0-2.922.87-3.212,2.984h6.217ZM262.205,24.928c2.694,0,3.73,1.741,3.73,4.331v7.025h-2.155v-6.445c0-1.616-.269-3.109-2.3-3.109-1.865,0-2.777,1.347-2.777,3.564v5.989h-2.155v-11.149h2.155v1.616c.642-1.098,1.761-1.824,3.502-1.824ZM272.234,26.648c-1.057,0-2.197.435-2.197,1.347,0,.829.539,1.181,1.554,1.389l1.596.311c2.114.414,3.958,1.14,3.958,3.316,0,2.259-2.114,3.544-4.684,3.544-2.819,0-4.538-1.637-4.808-3.73h2.197c.29,1.264,1.119,2.01,2.674,2.01,1.388,0,2.466-.58,2.466-1.575,0-1.036-.974-1.451-2.135-1.679l-1.679-.331c-1.679-.332-3.253-1.078-3.253-3.171,0-1.969,2.072-3.171,4.517-3.171,2.238,0,4.041,1.181,4.456,3.337h-2.134c-.311-1.14-1.264-1.596-2.529-1.596ZM283.757,36.554c-2.632,0-5.409-1.782-5.409-5.803,0-4.041,2.777-5.823,5.409-5.823,2.653,0,5.429,1.782,5.429,5.823,0,4.021-2.777,5.803-5.429,5.803ZM286.907,30.751c0-2.777-1.513-4-3.15-4-1.617,0-3.129,1.181-3.129,4,0,2.756,1.513,3.979,3.129,3.979,1.637,0,3.15-1.264,3.15-3.979ZM295.817,27.29c-1.658,0-2.528.808-2.528,3.15v5.844h-2.155v-11.149h2.114v1.969c.58-1.264,1.699-1.989,3.088-2.01.187,0,.414,0,.601.021v2.238c-.394-.041-.767-.062-1.119-.062ZM303.485,36.284v-15.025h2.363v15.025h-2.363ZM314.302,24.928c2.694,0,3.73,1.741,3.73,4.331v7.025h-2.155v-6.445c0-1.616-.269-3.109-2.3-3.109-1.865,0-2.777,1.347-2.777,3.564v5.989h-2.155v-11.149h2.155v1.616c.642-1.098,1.761-1.824,3.502-1.824ZM323.006,22.275v2.86h2.197v1.637h-2.197v6.362c0,1.14.187,1.43,1.264,1.43h.912v1.72h-1.575c-2.259,0-2.756-.56-2.756-2.86v-6.652h-1.699v-1.637h1.699v-2.86h2.155ZM336.683,33.01c-.518,1.844-2.176,3.544-5.015,3.544-3.606,0-5.554-2.632-5.554-5.865,0-3.461,2.321-5.761,5.492-5.761,3.44,0,5.451,2.818,5.222,6.445h-8.496c.207,2.052,1.513,3.337,3.253,3.337,1.554,0,2.466-.643,2.922-1.699h2.176ZM334.59,29.674c-.062-1.658-1.223-2.984-3.005-2.984-1.679,0-2.922.87-3.212,2.984h6.217ZM338.63,36.284v-15.025h2.155v15.025h-2.155ZM343.376,36.284v-15.025h2.155v15.025h-2.155ZM350.277,23.643h-2.155v-2.383h2.155v2.383ZM350.277,36.284h-2.155v-11.149h2.155v11.149ZM362.441,25.135v9.844c0,2.051-.435,3.15-1.202,3.917-.85.891-2.197,1.347-3.896,1.347-2.487,0-4.311-1.077-4.663-3.419h2.218c.228,1.016.87,1.617,2.487,1.617,1.057,0,1.782-.29,2.239-.808.435-.477.663-1.057.663-2.197v-1.181c-.684,1.14-1.803,1.844-3.44,1.844-2.59,0-4.746-2.052-4.746-5.596,0-3.523,2.155-5.575,4.746-5.575,1.637,0,2.756.705,3.44,1.844v-1.637h2.155ZM354.4,30.502c0,2.425,1.16,3.834,2.943,3.834,1.658,0,3.026-1.16,3.026-3.834,0-2.653-1.368-3.792-3.026-3.792-1.782,0-2.943,1.409-2.943,3.792ZM374.813,33.01c-.518,1.844-2.176,3.544-5.015,3.544-3.606,0-5.554-2.632-5.554-5.865,0-3.461,2.321-5.761,5.492-5.761,3.44,0,5.451,2.818,5.222,6.445h-8.496c.207,2.052,1.513,3.337,3.253,3.337,1.554,0,2.466-.643,2.922-1.699h2.176ZM372.72,29.674c-.062-1.658-1.223-2.984-3.005-2.984-1.679,0-2.922.87-3.212,2.984h6.217ZM382.418,24.928c2.694,0,3.73,1.741,3.73,4.331v7.025h-2.155v-6.445c0-1.616-.269-3.109-2.3-3.109-1.865,0-2.777,1.347-2.777,3.564v5.989h-2.155v-11.149h2.155v1.616c.642-1.098,1.761-1.824,3.502-1.824ZM395.826,28.907c-.228-1.264-1.368-2.135-2.777-2.135-1.555,0-2.984,1.223-2.984,3.938,0,2.756,1.451,4,2.984,4,1.368,0,2.569-.808,2.859-2.135h2.176c-.435,2.342-2.611,3.979-5.077,3.979-3.212,0-5.243-2.466-5.243-5.823,0-3.316,2.093-5.803,5.388-5.803,2.549,0,4.497,1.803,4.829,3.979h-2.155ZM409.71,33.01c-.518,1.844-2.176,3.544-5.015,3.544-3.606,0-5.554-2.632-5.554-5.865,0-3.461,2.321-5.761,5.492-5.761,3.44,0,5.451,2.818,5.222,6.445h-8.496c.207,2.052,1.513,3.337,3.253,3.337,1.554,0,2.466-.643,2.922-1.699h2.176ZM407.617,29.674c-.062-1.658-1.223-2.984-3.005-2.984-1.679,0-2.922.87-3.212,2.984h6.217Z"/>
  </g>
</svg>